# Blender 4.1.1
# www.blender.org
mtllib Ground.mtl
o stage1
v 0.000000 0.010000 -3.000000
v -0.585271 0.010000 -2.942356
v -1.148050 0.010000 -2.771638
v -1.666711 0.010000 -2.494409
v -2.121320 0.010000 -2.121320
v -2.494409 0.010000 -1.666711
v -2.771638 0.010000 -1.148050
v -2.942356 0.010000 -0.585271
v -3.000000 0.010000 0.000000
v -2.942356 0.010000 0.585271
v -2.771638 0.010000 1.148050
v -2.494409 0.010000 1.666711
v -2.121320 0.010000 2.121320
v -1.666711 0.010000 2.494409
v -1.148050 0.010000 2.771638
v -0.585271 0.010000 2.942356
v 0.000000 0.010000 3.000000
v 0.585271 0.010000 2.942356
v 1.148050 0.010000 2.771638
v 1.666711 0.010000 2.494409
v 2.121320 0.010000 2.121320
v 2.494409 0.010000 1.666711
v 2.771638 0.010000 1.148050
v 2.942356 0.010000 0.585271
v 3.000000 0.010000 0.000000
v 2.942356 0.010000 -0.585271
v 2.771638 0.010000 -1.148050
v 2.494409 0.010000 -1.666711
v 2.121320 0.010000 -2.121320
v 1.666711 0.010000 -2.494409
v 1.148050 0.010000 -2.771638
v 0.585271 0.010000 -2.942356
v 0.000000 0.010000 -3.000000
v -0.585271 0.010000 -2.942356
v -1.148050 0.010000 -2.771638
v -1.666711 0.010000 -2.494409
v -2.121320 0.010000 -2.121320
v -2.494409 0.010000 -1.666711
v -2.771638 0.010000 -1.148050
v -2.942356 0.010000 -0.585271
v -3.000000 0.010000 0.000000
v -2.942356 0.010000 0.585271
v -2.771638 0.010000 1.148050
v -2.494409 0.010000 1.666711
v -2.121320 0.010000 2.121320
v -1.666711 0.010000 2.494409
v -1.148050 0.010000 2.771638
v -0.585271 0.010000 2.942356
v 0.000000 0.010000 3.000000
v 0.585271 0.010000 2.942356
v 1.148050 0.010000 2.771638
v 1.666711 0.010000 2.494409
v 2.121320 0.010000 2.121320
v 2.494409 0.010000 1.666711
v 2.771638 0.010000 1.148050
v 2.942356 0.010000 0.585271
v 3.000000 0.010000 0.000000
v 2.942356 0.010000 -0.585271
v 2.771638 0.010000 -1.148050
v 2.494409 0.010000 -1.666711
v 2.121320 0.010000 -2.121320
v 1.666711 0.010000 -2.494409
v 1.148050 0.010000 -2.771638
v 0.585271 0.010000 -2.942356
v 0.000000 0.020000 -1.000000
v -0.195090 0.020000 -0.980785
v -0.382683 0.020000 -0.923880
v -0.555570 0.020000 -0.831470
v -0.707107 0.020000 -0.707107
v -0.831470 0.020000 -0.555570
v -0.923880 0.020000 -0.382683
v -0.980785 0.020000 -0.195090
v -1.000000 0.020000 0.000000
v -0.980785 0.020000 0.195090
v -0.923880 0.020000 0.382683
v -0.831470 0.020000 0.555570
v -0.707107 0.020000 0.707107
v -0.555570 0.020000 0.831470
v -0.382683 0.020000 0.923880
v -0.195090 0.020000 0.980785
v 0.000000 0.020000 1.000000
v 0.195090 0.020000 0.980785
v 0.382683 0.020000 0.923880
v 0.555570 0.020000 0.831470
v 0.707107 0.020000 0.707107
v 0.831470 0.020000 0.555570
v 0.923880 0.020000 0.382683
v 0.980785 0.020000 0.195090
v 1.000000 0.020000 0.000000
v 0.980785 0.020000 -0.195090
v 0.923880 0.020000 -0.382683
v 0.831470 0.020000 -0.555570
v 0.707107 0.020000 -0.707107
v 0.555570 0.020000 -0.831470
v 0.382683 0.020000 -0.923880
v 0.195090 0.020000 -0.980785
v 0.000000 0.020000 -1.000000
v -0.195090 0.020000 -0.980785
v -0.382683 0.020000 -0.923880
v -0.555570 0.020000 -0.831470
v -0.707107 0.020000 -0.707107
v -0.831470 0.020000 -0.555570
v -0.923880 0.020000 -0.382683
v -0.980785 0.020000 -0.195090
v -1.000000 0.020000 0.000000
v -0.980785 0.020000 0.195090
v -0.923880 0.020000 0.382683
v -0.831470 0.020000 0.555570
v -0.707107 0.020000 0.707107
v -0.555570 0.020000 0.831470
v -0.382683 0.020000 0.923880
v -0.195090 0.020000 0.980785
v 0.000000 0.020000 1.000000
v 0.195090 0.020000 0.980785
v 0.382683 0.020000 0.923880
v 0.555570 0.020000 0.831470
v 0.707107 0.020000 0.707107
v 0.831470 0.020000 0.555570
v 0.923880 0.020000 0.382683
v 0.980785 0.020000 0.195090
v 1.000000 0.020000 0.000000
v 0.980785 0.020000 -0.195090
v 0.923880 0.020000 -0.382683
v 0.831470 0.020000 -0.555570
v 0.707107 0.020000 -0.707107
v 0.555570 0.020000 -0.831470
v 0.382683 0.020000 -0.923880
v 0.195090 0.020000 -0.980785
v 0.000000 0.000000 -20.000000
v -3.901807 0.000000 -19.615705
v -7.653670 0.000000 -18.477591
v -11.111405 0.000000 -16.629393
v -14.142137 0.000000 -14.142137
v -16.629393 0.000000 -11.111405
v -18.477591 0.000000 -7.653670
v -19.615705 0.000000 -3.901807
v -20.000000 0.000000 0.000000
v -19.615705 0.000000 3.901807
v -18.477591 0.000000 7.653670
v -16.629393 0.000000 11.111405
v -14.142137 0.000000 14.142137
v -11.111405 0.000000 16.629393
v -7.653670 0.000000 18.477591
v -3.901807 0.000000 19.615705
v 0.000000 0.000000 20.000000
v 3.901807 0.000000 19.615705
v 7.653670 0.000000 18.477591
v 11.111405 0.000000 16.629393
v 14.142137 0.000000 14.142137
v 16.629393 0.000000 11.111405
v 18.477591 0.000000 7.653670
v 19.615705 0.000000 3.901807
v 20.000000 0.000000 0.000000
v 19.615705 0.000000 -3.901807
v 18.477591 0.000000 -7.653670
v 16.629393 0.000000 -11.111405
v 14.142137 0.000000 -14.142137
v 11.111405 0.000000 -16.629393
v 7.653670 0.000000 -18.477591
v 3.901807 0.000000 -19.615705
v 0.000000 0.000000 -20.000000
v -3.901807 0.000000 -19.615705
v -7.653670 0.000000 -18.477591
v -11.111405 0.000000 -16.629393
v -14.142137 0.000000 -14.142137
v -16.629393 0.000000 -11.111405
v -18.477591 0.000000 -7.653670
v -19.615705 0.000000 -3.901807
v -20.000000 0.000000 0.000000
v -19.615705 0.000000 3.901807
v -18.477591 0.000000 7.653670
v -16.629393 0.000000 11.111405
v -14.142137 0.000000 14.142137
v -11.111405 0.000000 16.629393
v -7.653670 0.000000 18.477591
v -3.901807 0.000000 19.615705
v 0.000000 0.000000 20.000000
v 3.901807 0.000000 19.615705
v 7.653670 0.000000 18.477591
v 11.111405 0.000000 16.629393
v 14.142137 0.000000 14.142137
v 16.629393 0.000000 11.111405
v 18.477591 0.000000 7.653670
v 19.615705 0.000000 3.901807
v 20.000000 0.000000 0.000000
v 19.615705 0.000000 -3.901807
v 18.477591 0.000000 -7.653670
v 16.629393 0.000000 -11.111405
v 14.142137 0.000000 -14.142137
v 11.111405 0.000000 -16.629393
v 7.653670 0.000000 -18.477591
v 3.901807 0.000000 -19.615705
v 0.000000 0.010000 -15.000000
v -2.926355 0.010000 -14.711779
v -5.740252 0.010000 -13.858192
v -8.333553 0.010000 -12.472044
v -10.606602 0.010000 -10.606602
v -12.472044 0.010000 -8.333553
v -13.858192 0.010000 -5.740252
v -14.711779 0.010000 -2.926355
v -15.000000 0.010000 0.000000
v -14.711779 0.010000 2.926355
v -13.858192 0.010000 5.740252
v -12.472044 0.010000 8.333553
v -10.606602 0.010000 10.606602
v -8.333553 0.010000 12.472044
v -5.740252 0.010000 13.858192
v -2.926354 0.010000 14.711779
v 0.000000 0.010000 15.000000
v 2.926355 0.010000 14.711779
v 5.740252 0.010000 13.858192
v 8.333553 0.010000 12.472044
v 10.606602 0.010000 10.606602
v 12.472044 0.010000 8.333553
v 13.858192 0.010000 5.740252
v 14.711779 0.010000 2.926355
v 15.000000 0.010000 0.000000
v 14.711779 0.010000 -2.926355
v 13.858192 0.010000 -5.740252
v 12.472044 0.010000 -8.333553
v 10.606602 0.010000 -10.606602
v 8.333553 0.010000 -12.472044
v 5.740252 0.010000 -13.858192
v 2.926355 0.010000 -14.711779
v 0.000000 0.010000 -10.000000
v -1.950903 0.010000 -9.807853
v -3.826835 0.010000 -9.238795
v -5.555702 0.010000 -8.314696
v -7.071068 0.010000 -7.071068
v -8.314696 0.010000 -5.555702
v -9.238795 0.010000 -3.826835
v -9.807853 0.010000 -1.950903
v -10.000000 0.010000 0.000000
v -9.807853 0.010000 1.950903
v -9.238795 0.010000 3.826835
v -8.314696 0.010000 5.555702
v -7.071068 0.010000 7.071068
v -5.555702 0.010000 8.314696
v -3.826835 0.010000 9.238795
v -1.950903 0.010000 9.807853
v 0.000000 0.010000 10.000000
v 1.950903 0.010000 9.807853
v 3.826835 0.010000 9.238795
v 5.555702 0.010000 8.314696
v 7.071068 0.010000 7.071068
v 8.314696 0.010000 5.555702
v 9.238795 0.010000 3.826835
v 9.807853 0.010000 1.950903
v 10.000000 0.010000 0.000000
v 9.807853 0.010000 -1.950903
v 9.238795 0.010000 -3.826835
v 8.314696 0.010000 -5.555702
v 7.071068 0.010000 -7.071068
v 5.555702 0.010000 -8.314696
v 3.826835 0.010000 -9.238795
v 1.950903 0.010000 -9.807853
vn -0.0000 1.0000 -0.0000
vn -0.0000 -1.0000 -0.0000
vt 0.000000 0.000000
s 0
usemtl マテリアル.001
f 17/1/1 25/1/1 1/1/1
f 1/1/1 2/1/1 3/1/1
f 3/1/1 4/1/1 5/1/1
f 5/1/1 6/1/1 7/1/1
f 7/1/1 8/1/1 9/1/1
f 9/1/1 10/1/1 11/1/1
f 11/1/1 12/1/1 13/1/1
f 13/1/1 14/1/1 15/1/1
f 15/1/1 16/1/1 17/1/1
f 17/1/1 18/1/1 19/1/1
f 19/1/1 20/1/1 21/1/1
f 21/1/1 22/1/1 23/1/1
f 23/1/1 24/1/1 25/1/1
f 25/1/1 26/1/1 27/1/1
f 27/1/1 28/1/1 29/1/1
f 29/1/1 30/1/1 31/1/1
f 31/1/1 32/1/1 1/1/1
f 1/1/1 3/1/1 5/1/1
f 5/1/1 7/1/1 9/1/1
f 9/1/1 11/1/1 13/1/1
f 13/1/1 15/1/1 17/1/1
f 17/1/1 19/1/1 21/1/1
f 21/1/1 23/1/1 25/1/1
f 25/1/1 27/1/1 29/1/1
f 29/1/1 31/1/1 1/1/1
f 1/1/1 5/1/1 9/1/1
f 9/1/1 13/1/1 17/1/1
f 17/1/1 21/1/1 25/1/1
f 25/1/1 29/1/1 1/1/1
f 1/1/1 9/1/1 17/1/1
usemtl マテリアル
f 81/1/1 89/1/1 65/1/1
f 65/1/1 66/1/1 67/1/1
f 67/1/1 68/1/1 69/1/1
f 69/1/1 70/1/1 71/1/1
f 71/1/1 72/1/1 73/1/1
f 73/1/1 74/1/1 75/1/1
f 75/1/1 76/1/1 77/1/1
f 77/1/1 78/1/1 79/1/1
f 79/1/1 80/1/1 81/1/1
f 81/1/1 82/1/1 83/1/1
f 83/1/1 84/1/1 85/1/1
f 85/1/1 86/1/1 87/1/1
f 87/1/1 88/1/1 89/1/1
f 89/1/1 90/1/1 91/1/1
f 91/1/1 92/1/1 93/1/1
f 93/1/1 94/1/1 95/1/1
f 95/1/1 96/1/1 65/1/1
f 65/1/1 67/1/1 69/1/1
f 69/1/1 71/1/1 73/1/1
f 73/1/1 75/1/1 77/1/1
f 77/1/1 79/1/1 81/1/1
f 81/1/1 83/1/1 85/1/1
f 85/1/1 87/1/1 89/1/1
f 89/1/1 91/1/1 93/1/1
f 93/1/1 95/1/1 65/1/1
f 65/1/1 69/1/1 73/1/1
f 73/1/1 77/1/1 81/1/1
f 81/1/1 85/1/1 89/1/1
f 89/1/1 93/1/1 65/1/1
f 65/1/1 73/1/1 81/1/1
usemtl マテリアル.002
f 145/1/1 153/1/1 129/1/1
f 129/1/1 130/1/1 131/1/1
f 131/1/1 132/1/1 133/1/1
f 133/1/1 134/1/1 135/1/1
f 135/1/1 136/1/1 137/1/1
f 137/1/1 138/1/1 139/1/1
f 139/1/1 140/1/1 141/1/1
f 141/1/1 142/1/1 143/1/1
f 143/1/1 144/1/1 145/1/1
f 145/1/1 146/1/1 147/1/1
f 147/1/1 148/1/1 149/1/1
f 149/1/1 150/1/1 151/1/1
f 151/1/1 152/1/1 153/1/1
f 153/1/1 154/1/1 155/1/1
f 155/1/1 156/1/1 157/1/1
f 157/1/1 158/1/1 159/1/1
f 159/1/1 160/1/1 129/1/1
f 129/1/1 131/1/1 133/1/1
f 133/1/1 135/1/1 137/1/1
f 137/1/1 139/1/1 141/1/1
f 141/1/1 143/1/1 145/1/1
f 145/1/1 147/1/1 149/1/1
f 149/1/1 151/1/1 153/1/1
f 153/1/1 155/1/1 157/1/1
f 157/1/1 159/1/1 129/1/1
f 129/1/1 133/1/1 137/1/1
f 137/1/1 141/1/1 145/1/1
f 145/1/1 149/1/1 153/1/1
f 153/1/1 157/1/1 129/1/1
f 129/1/1 137/1/1 145/1/1
usemtl マテリアル.003
f 243/1/2 212/1/2 208/1/2
f 239/1/2 208/1/2 204/1/2
f 235/1/2 203/1/2 201/1/2
f 230/1/2 231/1/2 196/1/2
f 225/1/2 194/1/2 222/1/2
f 252/1/2 221/1/2 217/1/2
f 248/1/2 217/1/2 213/1/2
f 208/1/2 240/1/2 241/1/2
f 208/1/2 241/1/2 242/1/2
f 210/1/2 209/1/2 208/1/2
f 212/1/2 211/1/2 210/1/2
f 245/1/2 213/1/2 212/1/2
f 244/1/2 245/1/2 212/1/2
f 212/1/2 210/1/2 208/1/2
f 208/1/2 242/1/2 243/1/2
f 243/1/2 244/1/2 212/1/2
f 204/1/2 236/1/2 237/1/2
f 204/1/2 237/1/2 238/1/2
f 206/1/2 205/1/2 204/1/2
f 208/1/2 207/1/2 206/1/2
f 239/1/2 240/1/2 208/1/2
f 204/1/2 238/1/2 239/1/2
f 208/1/2 206/1/2 204/1/2
f 201/1/2 233/1/2 234/1/2
f 235/1/2 236/1/2 204/1/2
f 201/1/2 234/1/2 235/1/2
f 203/1/2 202/1/2 201/1/2
f 235/1/2 204/1/2 203/1/2
f 194/1/2 226/1/2 227/1/2
f 194/1/2 227/1/2 228/1/2
f 196/1/2 195/1/2 194/1/2
f 198/1/2 197/1/2 196/1/2
f 200/1/2 199/1/2 198/1/2
f 233/1/2 201/1/2 200/1/2
f 232/1/2 233/1/2 200/1/2
f 200/1/2 198/1/2 196/1/2
f 196/1/2 194/1/2 228/1/2
f 196/1/2 228/1/2 229/1/2
f 232/1/2 200/1/2 196/1/2
f 231/1/2 232/1/2 196/1/2
f 196/1/2 229/1/2 230/1/2
f 222/1/2 254/1/2 255/1/2
f 222/1/2 255/1/2 256/1/2
f 224/1/2 223/1/2 222/1/2
f 194/1/2 193/1/2 224/1/2
f 225/1/2 226/1/2 194/1/2
f 222/1/2 256/1/2 225/1/2
f 194/1/2 224/1/2 222/1/2
f 217/1/2 249/1/2 250/1/2
f 217/1/2 250/1/2 251/1/2
f 219/1/2 218/1/2 217/1/2
f 221/1/2 220/1/2 219/1/2
f 254/1/2 222/1/2 221/1/2
f 253/1/2 254/1/2 221/1/2
f 221/1/2 219/1/2 217/1/2
f 217/1/2 251/1/2 252/1/2
f 252/1/2 253/1/2 221/1/2
f 213/1/2 245/1/2 246/1/2
f 213/1/2 246/1/2 247/1/2
f 215/1/2 214/1/2 213/1/2
f 217/1/2 216/1/2 215/1/2
f 248/1/2 249/1/2 217/1/2
f 213/1/2 247/1/2 248/1/2
f 217/1/2 215/1/2 213/1/2
l 34 33
l 35 34
l 36 35
l 37 36
l 38 37
l 39 38
l 40 39
l 41 40
l 42 41
l 43 42
l 44 43
l 45 44
l 46 45
l 47 46
l 48 47
l 49 48
l 50 49
l 51 50
l 52 51
l 53 52
l 54 53
l 55 54
l 56 55
l 57 56
l 58 57
l 59 58
l 60 59
l 61 60
l 62 61
l 63 62
l 64 63
l 33 64
l 98 97
l 99 98
l 100 99
l 101 100
l 102 101
l 103 102
l 104 103
l 105 104
l 106 105
l 107 106
l 108 107
l 109 108
l 110 109
l 111 110
l 112 111
l 113 112
l 114 113
l 115 114
l 116 115
l 117 116
l 118 117
l 119 118
l 120 119
l 121 120
l 122 121
l 123 122
l 124 123
l 125 124
l 126 125
l 127 126
l 128 127
l 97 128
l 162 161
l 163 162
l 164 163
l 165 164
l 166 165
l 167 166
l 168 167
l 169 168
l 170 169
l 171 170
l 172 171
l 173 172
l 174 173
l 175 174
l 176 175
l 177 176
l 178 177
l 179 178
l 180 179
l 181 180
l 182 181
l 183 182
l 184 183
l 185 184
l 186 185
l 187 186
l 188 187
l 189 188
l 190 189
l 191 190
l 192 191
l 161 192
